<svg xmlns="http://www.w3.org/2000/svg" viewBox="0 0 300 300">
  <circle cx="150" cy="150" r="100" fill="#fff"/>
  <path d="M150 50C94.8 50 50 94.8 50 150s44.8 100 100 100 100-44.8 100-100S205.2 50 150 50zm0 190c-49.7 0-90-40.3-90-90s40.3-90 90-90 90 40.3 90 90-40.3 90-90 90z" fill="#000"/>
  <path d="M150 80c-38.7 0-70 31.3-70 70s31.3 70 70 70 70-31.3 70-70-31.3-70-70-70zm0 130c-33.1 0-60-26.9-60-60s26.9-60 60-60 60 26.9 60 60-26.9 60-60 60z" fill="#f90"/>
  <path d="M150 100c-27.6 0-50 22.4-50 50s22.4 50 50 50 50-22.4 50-50-22.4-50-50-50zm0 90c-22.1 0-40-17.9-40-40s17.9-40 40-40 40 17.9 40 40-17.9 40-40 40z" fill="#f60"/>
  <path d="M150 120c-16.6 0-30 13.4-30 30s13.4 30 30 30 30-13.4 30-30-13.4-30-30-30zm0 50c-11 0-20-9-20-20s9-20 20-20 20 9 20 20-9 20-20 20z" fill="#c00"/>
  <path d="M150 140c-5.5 0-10 4.5-10 10s4.5 10 10 10 10-4.5 10-10-4.5-10-10-10z" fill="#900"/>
  <text x="150" y="220" font-family="Arial" font-size="14" text-anchor="middle" fill="#000">FLORIDA CONTRACTORS</text>
  <path d="M50 150h200M150 50v200" stroke="#000" stroke-width="2" stroke-dasharray="5,5"/>
</svg>